<svg width="48" height="48" viewBox="0 0 48 48" fill="none" xmlns="http://www.w3.org/2000/svg">
<rect width="48" height="48" rx="24" fill="#D8D3F4" fill-opacity="0.3"/>
<path d="M29.75 18C29.2 18 28.7292 17.8042 28.3375 17.4125C27.9458 17.0208 27.75 16.55 27.75 16C27.75 15.45 27.9458 14.9792 28.3375 14.5875C28.7292 14.1958 29.2 14 29.75 14C30.3 14 30.7708 14.1958 31.1625 14.5875C31.5542 14.9792 31.75 15.45 31.75 16C31.75 16.55 31.5542 17.0208 31.1625 17.4125C30.7708 17.8042 30.3 18 29.75 18ZM28.75 34V26C28.75 25.3333 28.5792 24.7333 28.2375 24.2C27.8958 23.6667 27.4583 23.25 26.925 22.95L27.8 20.375C27.9333 19.9583 28.1792 19.625 28.5375 19.375C28.8958 19.125 29.3 19 29.75 19C30.2 19 30.6042 19.125 30.9625 19.375C31.3208 19.625 31.5667 19.9583 31.7 20.375L34.25 28H31.75V34H28.75ZM24.25 23.5C23.8333 23.5 23.4792 23.3542 23.1875 23.0625C22.8958 22.7708 22.75 22.4167 22.75 22C22.75 21.5833 22.8958 21.2292 23.1875 20.9375C23.4792 20.6458 23.8333 20.5 24.25 20.5C24.6667 20.5 25.0208 20.6458 25.3125 20.9375C25.6042 21.2292 25.75 21.5833 25.75 22C25.75 22.4167 25.6042 22.7708 25.3125 23.0625C25.0208 23.3542 24.6667 23.5 24.25 23.5ZM17.25 18C16.7 18 16.2292 17.8042 15.8375 17.4125C15.4458 17.0208 15.25 16.55 15.25 16C15.25 15.45 15.4458 14.9792 15.8375 14.5875C16.2292 14.1958 16.7 14 17.25 14C17.8 14 18.2708 14.1958 18.6625 14.5875C19.0542 14.9792 19.25 15.45 19.25 16C19.25 16.55 19.0542 17.0208 18.6625 17.4125C18.2708 17.8042 17.8 18 17.25 18ZM15.25 34V27H13.75V21C13.75 20.45 13.9458 19.9792 14.3375 19.5875C14.7292 19.1958 15.2 19 15.75 19H18.75C19.3 19 19.7708 19.1958 20.1625 19.5875C20.5542 19.9792 20.75 20.45 20.75 21V27H19.25V34H15.25ZM22.75 34V30H21.75V26C21.75 25.5833 21.8958 25.2292 22.1875 24.9375C22.4792 24.6458 22.8333 24.5 23.25 24.5H25.25C25.6667 24.5 26.0208 24.6458 26.3125 24.9375C26.6042 25.2292 26.75 25.5833 26.75 26V30H25.75V34H22.75Z" fill="#5F5C78"/>
</svg>
