<svg width="46" height="20" viewBox="0 0 46 20" fill="none" xmlns="http://www.w3.org/2000/svg">
<path d="M0 16.3881V14.8878H1.80807V7.42465C1.80807 6.07949 2.22323 4.89013 3.05353 3.85657C3.88384 2.82302 4.94978 2.16198 6.25134 1.87346V1.25025C6.25134 0.902961 6.37278 0.607763 6.61567 0.364658C6.85855 0.121553 7.15349 0 7.50046 0C7.84744 0 8.14275 0.121553 8.38639 0.364658C8.63003 0.607763 8.75185 0.902961 8.75185 1.25025V1.87346C10.0534 2.16198 11.1193 2.82302 11.9497 3.85657C12.78 4.89013 13.1951 6.07949 13.1951 7.42465V14.8878H15.0032V16.3881H0ZM7.49989 19.1964C7.00221 19.1964 6.57672 19.0194 6.22344 18.6653C5.87016 18.3112 5.69352 17.8856 5.69352 17.3884H9.30967C9.30967 17.8872 9.13246 18.3132 8.77805 18.6665C8.42363 19.0198 7.99758 19.1964 7.49989 19.1964ZM3.30836 14.8878H11.6948V7.42465C11.6948 6.2667 11.2854 5.27834 10.4667 4.45957C9.6479 3.6408 8.65954 3.23142 7.5016 3.23142C6.34365 3.23142 5.35529 3.6408 4.53652 4.45957C3.71775 5.27834 3.30836 6.2667 3.30836 7.42465V14.8878Z" fill="#64748B"/>
<path d="M38.4983 7.00145C37.5327 7.00145 36.7079 6.65939 36.0238 5.97528C35.3397 5.29116 34.9976 4.46631 34.9976 3.50073C34.9976 2.53514 35.3397 1.71029 36.0238 1.02617C36.7079 0.342058 37.5327 0 38.4983 0C39.4639 0 40.2888 0.342058 40.9729 1.02617C41.657 1.71029 41.9991 2.53514 41.9991 3.50073C41.9991 4.46631 41.657 5.29116 40.9729 5.97528C40.2888 6.65939 39.4639 7.00145 38.4983 7.00145ZM30.9967 14.6185V12.3949C30.9967 11.9051 31.1298 11.4515 31.3959 11.0341C31.6619 10.6167 32.0175 10.2958 32.4624 10.0714C33.4511 9.58667 34.4484 9.22313 35.4544 8.98077C36.4604 8.73841 37.475 8.61723 38.4983 8.61723C39.5216 8.61723 40.5363 8.73841 41.5422 8.98077C42.5482 9.22313 43.5456 9.58667 44.5342 10.0714C44.9792 10.2958 45.3347 10.6167 45.6008 11.0341C45.8669 11.4515 45.9999 11.9051 45.9999 12.3949V14.6185H30.9967ZM32.497 13.1182H44.4996V12.3949C44.4996 12.1923 44.441 12.0048 44.3236 11.8323C44.2063 11.6598 44.047 11.5191 43.8456 11.4101C42.9839 10.9857 42.1052 10.6641 41.2096 10.4455C40.314 10.2268 39.4102 10.1175 38.4983 10.1175C37.5864 10.1175 36.6827 10.2268 35.787 10.4455C34.8914 10.6641 34.0127 10.9857 33.151 11.4101C32.9497 11.5191 32.7904 11.6598 32.673 11.8323C32.5557 12.0048 32.497 12.1923 32.497 12.3949V13.1182ZM38.4983 5.50116C39.0485 5.50116 39.5194 5.30528 39.9111 4.91353C40.3029 4.52178 40.4988 4.05084 40.4988 3.50073C40.4988 2.95061 40.3029 2.47967 39.9111 2.08792C39.5194 1.69617 39.0485 1.50029 38.4983 1.50029C37.9482 1.50029 37.4773 1.69617 37.0855 2.08792C36.6938 2.47967 36.4979 2.95061 36.4979 3.50073C36.4979 4.05084 36.6938 4.52178 37.0855 4.91353C37.4773 5.30528 37.9482 5.50116 38.4983 5.50116Z" fill="#64748B"/>
</svg>
