<svg width="19" height="19" viewBox="0 0 19 19" fill="none" xmlns="http://www.w3.org/2000/svg">
<path d="M7.08847 19L6.7077 15.9538C6.43975 15.8641 6.16506 15.7384 5.88364 15.5769C5.60223 15.4154 5.35062 15.2423 5.12882 15.0577L2.30767 16.25L0 12.25L2.44038 10.4058C2.41731 10.2571 2.40096 10.1077 2.39134 9.9577C2.38173 9.80769 2.37692 9.65833 2.37692 9.50961C2.37692 9.3673 2.38173 9.22275 2.39134 9.07595C2.40096 8.92915 2.41731 8.76857 2.44038 8.5942L0 6.74998L2.30767 2.76925L5.1192 3.95194C5.36023 3.76091 5.61761 3.58623 5.89134 3.42789C6.16506 3.26955 6.43398 3.14231 6.69808 3.04615L7.08847 0H11.7038L12.0846 3.05577C12.3846 3.16475 12.6561 3.29199 12.899 3.43751C13.142 3.58302 13.3872 3.7545 13.6346 3.95194L16.4846 2.76925L18.7923 6.74998L16.3134 8.62305C16.3493 8.7846 16.3689 8.93556 16.3721 9.07595C16.3753 9.21633 16.3769 9.35768 16.3769 9.49999C16.3769 9.63589 16.3737 9.77404 16.3673 9.91442C16.3609 10.0548 16.3378 10.2154 16.298 10.3962L18.7577 12.25L16.45 16.25L13.6346 15.048C13.3872 15.2455 13.1346 15.4202 12.8769 15.5721C12.6192 15.724 12.3551 15.8481 12.0846 15.9442L11.7038 19H7.08847ZM8.39613 17.5H10.3615L10.7211 14.8212C11.2314 14.6878 11.6977 14.4984 12.1202 14.2529C12.5426 14.0074 12.95 13.6917 13.3423 13.3058L15.8269 14.35L16.8115 12.65L14.6423 11.0154C14.7256 10.7564 14.7824 10.5026 14.8125 10.2538C14.8426 10.0051 14.8577 9.75384 14.8577 9.49999C14.8577 9.23974 14.8426 8.98846 14.8125 8.74615C14.7824 8.50384 14.7256 8.2564 14.6423 8.00384L16.8308 6.34998L15.8462 4.64998L13.3327 5.7096C12.9981 5.35191 12.5971 5.03588 12.1298 4.76152C11.6625 4.48716 11.1897 4.29293 10.7115 4.17882L10.3961 1.49997H8.41152L8.08075 4.16921C7.57049 4.28972 7.09934 4.47434 6.66728 4.72305C6.23523 4.97177 5.82305 5.29229 5.43074 5.6846L2.94612 4.64998L1.9615 6.34998L4.12112 7.95961C4.03779 8.19678 3.97945 8.44358 3.94612 8.69999C3.91279 8.9564 3.89612 9.22628 3.89612 9.50961C3.89612 9.76987 3.91279 10.025 3.94612 10.275C3.97945 10.525 4.03458 10.7718 4.1115 11.0154L1.9615 12.65L2.94612 14.35L5.42112 13.3C5.80061 13.6898 6.20638 14.009 6.63844 14.2577C7.07049 14.5064 7.54805 14.6974 8.07113 14.8308L8.39613 17.5ZM9.40767 12.5C10.2397 12.5 10.9477 12.208 11.5317 11.624C12.1157 11.04 12.4076 10.332 12.4076 9.49999C12.4076 8.66795 12.1157 7.95994 11.5317 7.37597C10.9477 6.79201 10.2397 6.50002 9.40767 6.50002C8.56537 6.50002 7.8548 6.79201 7.27596 7.37597C6.69712 7.95994 6.4077 8.66795 6.4077 9.49999C6.4077 10.332 6.69712 11.04 7.27596 11.624C7.8548 12.208 8.56537 12.5 9.40767 12.5Z" fill="#94A3B8"/>
</svg>
