<svg width="40" height="40" viewBox="0 0 40 40" fill="none" xmlns="http://www.w3.org/2000/svg">
<rect width="40" height="40" rx="20" fill="#F2F3FA"/>
<path d="M15.8846 29.75V20.6577C15.0731 20.482 14.3894 20.0715 13.8337 19.426C13.2779 18.7804 13 18.0103 13 17.1154V10.25H14.5V17.1154H15.8846V10.25H17.3846V17.1154H18.7692V10.25H20.2692V17.1154C20.2692 18.0103 19.9913 18.7804 19.4355 19.426C18.8798 20.0715 18.1961 20.482 17.3846 20.6577V29.75H15.8846ZM25.5 29.75V21.75H22.7692V15C22.7692 13.7513 23.1702 12.6683 23.9721 11.751C24.774 10.8337 25.7833 10.3398 26.9999 10.2692V29.75H25.5Z" fill="#595F6A"/>
</svg>
