<svg width="40" height="40" viewBox="0 0 40 40" fill="none" xmlns="http://www.w3.org/2000/svg">
<rect width="40" height="40" rx="20" fill="#F2F3FA"/>
<path d="M13.6153 25.5V26.75C13.6153 26.9625 13.5434 27.1406 13.3997 27.2843C13.256 27.4281 13.0778 27.5 12.8653 27.5H12.25C12.0375 27.5 11.8594 27.4281 11.7156 27.2843C11.5719 27.1406 11.5 26.9625 11.5 26.75V19.0769L13.5423 13.25C13.6167 13.0205 13.7532 12.8382 13.9519 12.7029C14.1506 12.5677 14.3718 12.5 14.6154 12.5H25.423C25.657 12.5 25.8695 12.5688 26.0604 12.7063C26.2513 12.8438 26.3837 13.025 26.4576 13.25L28.4999 19.0769V26.75C28.4999 26.9625 28.4281 27.1406 28.2843 27.2843C28.1406 27.4281 27.9624 27.5 27.7499 27.5H27.1346C26.9221 27.5 26.744 27.4281 26.6002 27.2843C26.4565 27.1406 26.3846 26.9625 26.3846 26.75V25.5H13.6153ZM13.6076 17.577H26.3923L25.1307 14H14.8692L13.6076 17.577ZM13 19.0769V24V19.0769ZM15.4638 22.8461C15.8276 22.8461 16.1362 22.7188 16.3894 22.4641C16.6426 22.2094 16.7692 21.9001 16.7692 21.5362C16.7692 21.1723 16.6418 20.8638 16.3871 20.6106C16.1324 20.3574 15.8231 20.2308 15.4592 20.2308C15.0954 20.2308 14.7868 20.3581 14.5336 20.6128C14.2804 20.8676 14.1538 21.1768 14.1538 21.5407C14.1538 21.9046 14.2812 22.2131 14.5359 22.4663C14.7906 22.7195 15.0999 22.8461 15.4638 22.8461ZM24.5407 22.8461C24.9046 22.8461 25.2131 22.7188 25.4663 22.4641C25.7195 22.2094 25.8461 21.9001 25.8461 21.5362C25.8461 21.1723 25.7188 20.8638 25.464 20.6106C25.2093 20.3574 24.9 20.2308 24.5362 20.2308C24.1723 20.2308 23.8638 20.3581 23.6106 20.6128C23.3574 20.8676 23.2307 21.1768 23.2307 21.5407C23.2307 21.9046 23.3581 22.2131 23.6128 22.4663C23.8675 22.7195 24.1768 22.8461 24.5407 22.8461ZM13 24H27V19.0769H13V24Z" fill="#595F6A"/>
</svg>
